name rise49.25peak52.1432fall72.8391.mot
datacolumns 19
datarows 30
range 19.44992800000000 19.49826000000000
endheader
time	ground_force1_vx	ground_force1_vy	ground_force1_vz	ground_force1_px	ground_force1_py	ground_force1_pz	ground_force2_vx	ground_force2_vy	ground_force2_vz	ground_force2_px	ground_force2_py	ground_force2_pz	ground_torque1_x	ground_torque1_y	ground_torque1_z	ground_torque2_x	ground_torque2_y	ground_torque2_z	
19.44992800000000	-1.07099000000000	722.77740100000005	49.23100000000000	0.21979700000000	0.00000000000000	0.12761500000000	0.00000000000000	0.00000000000000	0.00000000000000	0.00000000000000	0.00000000000000	0.00000000000000	0.00000000000000	21.69978500000000	0.00000000000000	0.00000000000000	0.00000000000000	0.00000000000000	
19.45159000000000	-1.60972000000000	724.09138199999995	49.29188600000000	0.21879900000000	0.00000000000000	0.12750900000000	0.00000000000000	0.00000000000000	0.00000000000000	0.00000000000000	0.00000000000000	0.00000000000000	0.00000000000000	21.79409400000000	0.00000000000000	0.00000000000000	0.00000000000000	0.00000000000000	
19.45325900000000	-2.15888000000000	725.41055800000004	49.35175400000000	0.21776300000000	0.00000000000000	0.12740100000000	0.00000000000000	0.00000000000000	0.00000000000000	0.00000000000000	0.00000000000000	0.00000000000000	0.00000000000000	21.88825300000000	0.00000000000000	0.00000000000000	0.00000000000000	0.00000000000000	
19.45492800000000	-2.71806100000000	726.73428799999999	49.41030800000000	0.21668800000000	0.00000000000000	0.12729100000000	0.00000000000000	0.00000000000000	0.00000000000000	0.00000000000000	0.00000000000000	0.00000000000000	0.00000000000000	21.98211600000000	0.00000000000000	0.00000000000000	0.00000000000000	0.00000000000000	
19.45658800000000	-3.28680700000000	728.06199800000002	49.46726800000000	0.21557800000000	0.00000000000000	0.12717900000000	0.00000000000000	0.00000000000000	0.00000000000000	0.00000000000000	0.00000000000000	0.00000000000000	0.00000000000000	22.07554200000000	0.00000000000000	0.00000000000000	0.00000000000000	0.00000000000000	
19.45826800000000	-3.86461700000000	729.39317400000004	49.52236400000000	0.21443400000000	0.00000000000000	0.12706500000000	0.00000000000000	0.00000000000000	0.00000000000000	0.00000000000000	0.00000000000000	0.00000000000000	0.00000000000000	22.16840000000000	0.00000000000000	0.00000000000000	0.00000000000000	0.00000000000000	
19.45992000000000	-4.45095300000000	730.72735799999998	49.57534200000000	0.21325900000000	0.00000000000000	0.12694900000000	0.00000000000000	0.00000000000000	0.00000000000000	0.00000000000000	0.00000000000000	0.00000000000000	0.00000000000000	22.26056100000000	0.00000000000000	0.00000000000000	0.00000000000000	0.00000000000000	
19.46159100000000	-5.04523300000000	732.06414500000005	49.62596500000000	0.21205300000000	0.00000000000000	0.12683100000000	0.00000000000000	0.00000000000000	0.00000000000000	0.00000000000000	0.00000000000000	0.00000000000000	0.00000000000000	22.35190800000000	0.00000000000000	0.00000000000000	0.00000000000000	0.00000000000000	
19.46325400000000	-5.64684200000000	733.40317600000003	49.67401100000000	0.21082100000000	0.00000000000000	0.12671000000000	0.00000000000000	0.00000000000000	0.00000000000000	0.00000000000000	0.00000000000000	0.00000000000000	0.00000000000000	22.44232600000000	0.00000000000000	0.00000000000000	0.00000000000000	0.00000000000000	
19.46492000000000	-6.25513000000000	734.74413700000002	49.71927800000000	0.20956400000000	0.00000000000000	0.12658700000000	0.00000000000000	0.00000000000000	0.00000000000000	0.00000000000000	0.00000000000000	0.00000000000000	0.00000000000000	22.53170900000000	0.00000000000000	0.00000000000000	0.00000000000000	0.00000000000000	
19.46658800000000	-6.86941500000000	736.08675200000005	49.76158400000000	0.20828500000000	0.00000000000000	0.12646200000000	0.00000000000000	0.00000000000000	0.00000000000000	0.00000000000000	0.00000000000000	0.00000000000000	0.00000000000000	22.61996000000000	0.00000000000000	0.00000000000000	0.00000000000000	0.00000000000000	
19.46825400000000	-7.48899000000000	737.43077600000004	49.80076900000000	0.20698800000000	0.00000000000000	0.12633500000000	0.00000000000000	0.00000000000000	0.00000000000000	0.00000000000000	0.00000000000000	0.00000000000000	0.00000000000000	22.70698400000000	0.00000000000000	0.00000000000000	0.00000000000000	0.00000000000000	
19.46992100000000	-8.11312000000000	738.77599499999997	49.83669200000000	0.20567400000000	0.00000000000000	0.12620500000000	0.00000000000000	0.00000000000000	0.00000000000000	0.00000000000000	0.00000000000000	0.00000000000000	0.00000000000000	22.79269800000000	0.00000000000000	0.00000000000000	0.00000000000000	0.00000000000000	
19.47158800000000	-8.74105300000000	740.12221699999998	49.86923900000000	0.20434700000000	0.00000000000000	0.12607300000000	0.00000000000000	0.00000000000000	0.00000000000000	0.00000000000000	0.00000000000000	0.00000000000000	0.00000000000000	22.87702300000000	0.00000000000000	0.00000000000000	0.00000000000000	0.00000000000000	
19.47325800000000	-9.37201500000000	741.46926900000005	49.89831600000000	0.20301000000000	0.00000000000000	0.12593900000000	0.00000000000000	0.00000000000000	0.00000000000000	0.00000000000000	0.00000000000000	0.00000000000000	0.00000000000000	22.95988500000000	0.00000000000000	0.00000000000000	0.00000000000000	0.00000000000000	
19.47492300000000	-10.00522000000000	742.81698900000004	49.92385600000000	0.20166500000000	0.00000000000000	0.12580200000000	0.00000000000000	0.00000000000000	0.00000000000000	0.00000000000000	0.00000000000000	0.00000000000000	0.00000000000000	23.04122000000000	0.00000000000000	0.00000000000000	0.00000000000000	0.00000000000000	
19.47659100000000	-10.63987200000000	744.16522599999996	49.94581700000000	0.20031700000000	0.00000000000000	0.12566300000000	0.00000000000000	0.00000000000000	0.00000000000000	0.00000000000000	0.00000000000000	0.00000000000000	0.00000000000000	23.12096800000000	0.00000000000000	0.00000000000000	0.00000000000000	0.00000000000000	
19.47825600000000	-11.27516500000000	745.51383099999998	49.96418200000000	0.19896800000000	0.00000000000000	0.12552200000000	0.00000000000000	0.00000000000000	0.00000000000000	0.00000000000000	0.00000000000000	0.00000000000000	0.00000000000000	23.19907400000000	0.00000000000000	0.00000000000000	0.00000000000000	0.00000000000000	
19.47992700000000	-11.91029200000000	746.86265300000002	49.97896000000000	0.19762100000000	0.00000000000000	0.12537800000000	0.00000000000000	0.00000000000000	0.00000000000000	0.00000000000000	0.00000000000000	0.00000000000000	0.00000000000000	23.27548900000000	0.00000000000000	0.00000000000000	0.00000000000000	0.00000000000000	
19.48159100000000	-12.54444600000000	748.21153600000002	49.99018400000000	0.19627900000000	0.00000000000000	0.12523200000000	0.00000000000000	0.00000000000000	0.00000000000000	0.00000000000000	0.00000000000000	0.00000000000000	0.00000000000000	23.35017000000000	0.00000000000000	0.00000000000000	0.00000000000000	0.00000000000000	
19.48325600000000	-13.17682000000000	749.56030999999996	49.99791700000000	0.19494500000000	0.00000000000000	0.12508300000000	0.00000000000000	0.00000000000000	0.00000000000000	0.00000000000000	0.00000000000000	0.00000000000000	0.00000000000000	23.42307800000000	0.00000000000000	0.00000000000000	0.00000000000000	0.00000000000000	
19.48492300000000	-13.80661900000000	750.90879399999994	50.00224500000000	0.19362200000000	0.00000000000000	0.12493200000000	0.00000000000000	0.00000000000000	0.00000000000000	0.00000000000000	0.00000000000000	0.00000000000000	0.00000000000000	23.49417800000000	0.00000000000000	0.00000000000000	0.00000000000000	0.00000000000000	
19.48659400000000	-14.43305500000000	752.25678400000004	50.00328000000000	0.19231200000000	0.00000000000000	0.12477900000000	0.00000000000000	0.00000000000000	0.00000000000000	0.00000000000000	0.00000000000000	0.00000000000000	0.00000000000000	23.56343900000000	0.00000000000000	0.00000000000000	0.00000000000000	0.00000000000000	
19.48825700000000	-15.05535600000000	753.60405300000002	50.00115800000000	0.19101800000000	0.00000000000000	0.12462400000000	0.00000000000000	0.00000000000000	0.00000000000000	0.00000000000000	0.00000000000000	0.00000000000000	0.00000000000000	23.63083600000000	0.00000000000000	0.00000000000000	0.00000000000000	0.00000000000000	
19.48992500000000	-15.67276500000000	754.95034599999997	49.99604000000000	0.18974300000000	0.00000000000000	0.12446700000000	0.00000000000000	0.00000000000000	0.00000000000000	0.00000000000000	0.00000000000000	0.00000000000000	0.00000000000000	23.69634300000000	0.00000000000000	0.00000000000000	0.00000000000000	0.00000000000000	
19.49158800000000	-16.28454600000000	756.29537900000003	49.98811200000000	0.18848800000000	0.00000000000000	0.12430800000000	0.00000000000000	0.00000000000000	0.00000000000000	0.00000000000000	0.00000000000000	0.00000000000000	0.00000000000000	23.75994200000000	0.00000000000000	0.00000000000000	0.00000000000000	0.00000000000000	
19.49325900000000	-16.88998900000000	757.63882999999998	49.97757900000000	0.18725700000000	0.00000000000000	0.12414700000000	0.00000000000000	0.00000000000000	0.00000000000000	0.00000000000000	0.00000000000000	0.00000000000000	0.00000000000000	23.82161300000000	0.00000000000000	0.00000000000000	0.00000000000000	0.00000000000000	
19.49492600000000	-17.48840500000000	758.98034099999995	49.96467000000000	0.18605000000000	0.00000000000000	0.12398400000000	0.00000000000000	0.00000000000000	0.00000000000000	0.00000000000000	0.00000000000000	0.00000000000000	0.00000000000000	23.88134300000000	0.00000000000000	0.00000000000000	0.00000000000000	0.00000000000000	
19.49659400000000	-18.07913800000000	760.31951500000002	49.94963300000000	0.18487100000000	0.00000000000000	0.12381900000000	0.00000000000000	0.00000000000000	0.00000000000000	0.00000000000000	0.00000000000000	0.00000000000000	0.00000000000000	23.93911900000000	0.00000000000000	0.00000000000000	0.00000000000000	0.00000000000000	
19.49826000000000	-18.66156200000000	761.65590999999995	49.93273300000000	0.18372000000000	0.00000000000000	0.12365300000000	0.00000000000000	0.00000000000000	0.00000000000000	0.00000000000000	0.00000000000000	0.00000000000000	0.00000000000000	23.99492900000000	0.00000000000000	0.00000000000000	0.00000000000000	0.00000000000000	
